<svg width="46" height="47" viewBox="0 0 46 47" fill="none" xmlns="http://www.w3.org/2000/svg">
<path d="M22.9987 27.1366C27.2269 27.1366 30.6654 23.6981 30.6654 19.4699C30.6654 15.2417 27.2269 11.8032 22.9987 11.8032C18.7705 11.8032 15.332 15.2417 15.332 19.4699C15.332 23.6981 18.7705 27.1366 22.9987 27.1366ZM22.9987 15.6366C25.1128 15.6366 26.832 17.3558 26.832 19.4699C26.832 21.584 25.1128 23.3032 22.9987 23.3032C20.8846 23.3032 19.1654 21.584 19.1654 19.4699C19.1654 17.3558 20.8846 15.6366 22.9987 15.6366Z" fill="white"/>
<path d="M22.2218 41.9768C22.5462 42.2085 22.9349 42.333 23.3335 42.333C23.7321 42.333 24.1208 42.2085 24.4452 41.9768C25.0278 41.5648 38.7224 31.6767 38.6668 19.3333C38.6668 10.8789 31.7879 4 23.3335 4C14.8791 4 8.00017 10.8789 8.00017 19.3238C7.94459 31.6767 21.6392 41.5648 22.2218 41.9768ZM23.3335 7.83333C29.6758 7.83333 34.8335 12.9911 34.8335 19.3429C34.8738 27.8491 26.4232 35.487 23.3335 37.9921C20.2458 35.4851 11.7933 27.8453 11.8335 19.3333C11.8335 12.9911 16.9913 7.83333 23.3335 7.83333Z" fill="white"/>
</svg>
